<svg width="38" height="34" viewBox="0 0 38 34" fill="none" xmlns="http://www.w3.org/2000/svg">
<path fill-rule="evenodd" clip-rule="evenodd" d="M27.946 0.450069C28.6579 0.731441 29.0866 1.46156 28.9854 2.22033L27.5703 12.8334L33.9666 12.8334C34.3345 12.8333 34.7158 12.8332 35.0308 12.862C35.3406 12.8903 35.9043 12.9654 36.4082 13.3543C36.9958 13.8078 37.3515 14.499 37.379 15.2408C37.4025 15.8768 37.136 16.3791 36.979 16.6477C36.8193 16.9208 36.5976 17.231 36.3837 17.5303L25.3562 32.9688C24.9113 33.5917 24.0993 33.8314 23.3874 33.55C22.6755 33.2687 22.2468 32.5385 22.348 31.7798L23.763 21.1667H17.4243C17.4051 21.1667 17.386 21.1667 17.3668 21.1667C16.9989 21.1668 16.6175 21.1669 16.3026 21.1381C15.9927 21.1098 15.429 21.0347 14.9252 20.6458C14.3376 20.1923 13.9819 19.5011 13.9544 18.7594C13.9308 18.1233 14.1973 17.621 14.3544 17.3524C14.514 17.0794 14.7357 16.7691 14.9496 16.4698C14.9608 16.4542 14.9719 16.4386 14.9831 16.423L25.9771 1.03133C26.422 0.40843 27.2341 0.168697 27.946 0.450069ZM18.072 17.8334H25.6667C26.1471 17.8334 26.6042 18.0407 26.9206 18.4022C27.2371 18.7637 27.3822 19.2441 27.3187 19.7203L26.5374 25.5803L33.2614 16.1667H25.6667C25.1862 16.1667 24.7292 15.9594 24.4127 15.5979C24.0962 15.2365 23.9511 14.756 24.0146 14.2798L24.7959 8.41984L18.072 17.8334ZM4 7.83339C4 6.91292 4.7462 6.16672 5.66667 6.16672H14C14.9205 6.16672 15.6667 6.91292 15.6667 7.83339C15.6667 8.75387 14.9205 9.50006 14 9.50006H5.66667C4.7462 9.50006 4 8.75387 4 7.83339ZM0.666672 17.0001C0.666672 16.0796 1.41286 15.3334 2.33334 15.3334H9.83334C10.7538 15.3334 11.5 16.0796 11.5 17.0001C11.5 17.9205 10.7538 18.6667 9.83334 18.6667H2.33334C1.41286 18.6667 0.666672 17.9205 0.666672 17.0001ZM3.16667 26.1667C3.16667 25.2462 3.91286 24.5001 4.83334 24.5001H14C14.9205 24.5001 15.6667 25.2462 15.6667 26.1667C15.6667 27.0872 14.9205 27.8334 14 27.8334H4.83334C3.91286 27.8334 3.16667 27.0872 3.16667 26.1667Z" fill="#0C0E12"/>
<path d="M5.66667 6.16672C4.7462 6.16672 4 6.91292 4 7.83339C4 8.75387 4.7462 9.50006 5.66667 9.50006H14C14.9205 9.50006 15.6667 8.75387 15.6667 7.83339C15.6667 6.91292 14.9205 6.16672 14 6.16672H5.66667Z" fill="#F7A600"/>
<path d="M2.33334 15.3334C1.41286 15.3334 0.666672 16.0796 0.666672 17.0001C0.666672 17.9205 1.41286 18.6667 2.33334 18.6667H9.83334C10.7538 18.6667 11.5 17.9205 11.5 17.0001C11.5 16.0796 10.7538 15.3334 9.83334 15.3334H2.33334Z" fill="#F7A600"/>
<path d="M4.83334 24.5001C3.91286 24.5001 3.16667 25.2462 3.16667 26.1667C3.16667 27.0872 3.91286 27.8334 4.83334 27.8334H14C14.9205 27.8334 15.6667 27.0872 15.6667 26.1667C15.6667 25.2462 14.9205 24.5001 14 24.5001H4.83334Z" fill="#F7A600"/>
</svg>
