<svg width="25" height="24" viewBox="0 0 25 24" fill="none" xmlns="http://www.w3.org/2000/svg">
<g clip-path="url(#clip0_171_79)">
<path d="M6.5 4H18.5V21H6.5V4Z" fill="white"/>
<path fill-rule="evenodd" clip-rule="evenodd" d="M10.806 18.528H13.5036V11.9992H15.3032L15.5416 9.7496H13.5036L13.5064 8.6232C13.5064 8.0368 13.5624 7.722 14.404 7.722H15.5288V5.472H13.7288C11.5668 5.472 10.806 6.5636 10.806 8.3988V9.7496H9.4584V11.9996H10.806V18.528ZM12.5 24C5.8728 24 0.5 18.6272 0.5 12C0.5 5.3724 5.8728 0 12.5 0C19.1272 0 24.5 5.3724 24.5 12C24.5 18.6272 19.1272 24 12.5 24Z" fill="#4267B2"/>
</g>
<defs>
<clipPath id="clip0_171_79">
<rect width="24" height="24" fill="white" transform="translate(0.5)"/>
</clipPath>
</defs>
</svg>
