<svg width="40" height="40" viewBox="0 0 40 40" fill="none" xmlns="http://www.w3.org/2000/svg">
<path fill-rule="evenodd" clip-rule="evenodd" d="M19.5233 1.81429C19.8395 1.76861 20.1606 1.76861 20.4767 1.81429C20.8411 1.86695 21.1802 1.99504 21.4494 2.09675C21.4741 2.10606 21.4981 2.11515 21.5216 2.12394L30.4579 5.47506C30.5311 5.5025 30.6036 5.5296 30.6756 5.55647C31.7053 5.94089 32.6095 6.27849 33.3059 6.89219C33.9151 7.42906 34.3843 8.10621 34.6731 8.86512C35.0032 9.73264 35.0018 10.6978 35.0002 11.7969C35.0001 11.8737 35 11.9512 35 12.0294V20C35 24.7111 32.4379 28.6387 29.6683 31.5241C26.8801 34.4287 23.69 36.4803 22.0032 37.4644C21.9809 37.4774 21.9582 37.4908 21.9349 37.5044C21.6271 37.6852 21.2275 37.9198 20.699 38.0332C20.2665 38.1259 19.7335 38.1259 19.3011 38.0332C18.7725 37.9198 18.373 37.6852 18.0651 37.5044C18.0419 37.4908 18.0191 37.4774 17.9968 37.4644C16.31 36.4803 13.1199 34.4287 10.3318 31.5241C7.56217 28.6387 5.00001 24.7111 5.00001 20V12.0294C5.00001 11.9512 4.9999 11.8737 4.99979 11.7969C4.9982 10.6978 4.9968 9.73264 5.32692 8.86512C5.6157 8.10621 6.08497 7.42906 6.69416 6.89219C7.39053 6.27848 8.29477 5.94089 9.32442 5.55647C9.39639 5.5296 9.46898 5.5025 9.54215 5.47506L18.4785 2.12394C18.5019 2.11515 18.526 2.10606 18.5506 2.09675C18.8198 1.99504 19.1589 1.86695 19.5233 1.81429ZM19.995 5.11882C19.9269 5.14114 19.8346 5.1754 19.6489 5.24503L10.7126 8.59616C9.33716 9.11193 9.07247 9.23927 8.89806 9.39297C8.695 9.57193 8.53858 9.79765 8.44231 10.0506C8.35964 10.2679 8.33335 10.5604 8.33335 12.0294V20C8.33335 23.4697 10.2328 26.6074 12.7365 29.2158C15.2217 31.8048 18.1166 33.6752 19.6765 34.5852C19.7719 34.6409 19.8407 34.6809 19.9005 34.7146C19.9474 34.741 19.9786 34.7577 20 34.7685C20.0214 34.7577 20.0526 34.741 20.0996 34.7146C20.1594 34.6809 20.2281 34.6409 20.3235 34.5852C21.8834 33.6752 24.7783 31.8048 27.2635 29.2157C29.7672 26.6074 31.6667 23.4697 31.6667 20V12.0294C31.6667 10.5604 31.6404 10.2679 31.5577 10.0506C31.4615 9.79765 31.305 9.57193 31.102 9.39297C30.9276 9.23927 30.6629 9.11193 29.2875 8.59616L20.3511 5.24503C20.1655 5.1754 20.0731 5.14114 20.005 5.11882C20.0033 5.11824 20.0016 5.1177 20 5.11718C19.9984 5.1177 19.9967 5.11824 19.995 5.11882ZM27.0119 13.8215C27.6627 14.4724 27.6627 15.5277 27.0119 16.1785L19.5119 23.6785C18.861 24.3294 17.8057 24.3294 17.1548 23.6785L13.8215 20.3452C13.1706 19.6943 13.1706 18.6391 13.8215 17.9882C14.4724 17.3373 15.5277 17.3373 16.1785 17.9882L18.3333 20.143L24.6548 13.8215C25.3057 13.1706 26.361 13.1706 27.0119 13.8215Z" fill="#0C0E12"/>
<path d="M27.0119 16.1785C27.6627 15.5277 27.6627 14.4724 27.0119 13.8215C26.361 13.1706 25.3057 13.1706 24.6548 13.8215L18.3333 20.143L16.1785 17.9882C15.5277 17.3373 14.4724 17.3373 13.8215 17.9882C13.1706 18.6391 13.1706 19.6943 13.8215 20.3452L17.1548 23.6785C17.8057 24.3294 18.861 24.3294 19.5119 23.6785L27.0119 16.1785Z" fill="#F7A600"/>
</svg>
