<svg width="40" height="40" viewBox="0 0 40 40" fill="none" xmlns="http://www.w3.org/2000/svg">
<path d="M9.16669 3.33329C9.16669 2.41282 8.42049 1.66663 7.50002 1.66663C6.57955 1.66663 5.83335 2.41282 5.83335 3.33329V5.83329H3.33335C2.41288 5.83329 1.66669 6.57948 1.66669 7.49996C1.66669 8.42043 2.41288 9.16663 3.33335 9.16663H5.83335V11.6666C5.83335 12.5871 6.57955 13.3333 7.50002 13.3333C8.42049 13.3333 9.16669 12.5871 9.16669 11.6666V9.16663H11.6667C12.5872 9.16663 13.3334 8.42043 13.3334 7.49996C13.3334 6.57948 12.5872 5.83329 11.6667 5.83329H9.16669V3.33329Z" fill="#F7A600"/>
<path d="M9.16669 28.3333C9.16669 27.4128 8.42049 26.6666 7.50002 26.6666C6.57955 26.6666 5.83335 27.4128 5.83335 28.3333V30.8333H3.33335C2.41288 30.8333 1.66669 31.5795 1.66669 32.5C1.66669 33.4204 2.41288 34.1666 3.33335 34.1666H5.83335V36.6666C5.83335 37.5871 6.57955 38.3333 7.50002 38.3333C8.42049 38.3333 9.16669 37.5871 9.16669 36.6666V34.1666H11.6667C12.5872 34.1666 13.3334 33.4204 13.3334 32.5C13.3334 31.5795 12.5872 30.8333 11.6667 30.8333H9.16669V28.3333Z" fill="#F7A600"/>
<path fill-rule="evenodd" clip-rule="evenodd" d="M21.6667 3.33329C22.3563 3.33329 22.9747 3.75801 23.2223 4.40166L26.1126 11.9164C26.6132 13.2182 26.7706 13.5933 26.9858 13.8959C27.2017 14.1996 27.467 14.4649 27.7707 14.6809C28.0734 14.8961 28.4485 15.0534 29.7502 15.5541L37.265 18.4444C37.9086 18.6919 38.3334 19.3103 38.3334 20C38.3334 20.6896 37.9086 21.308 37.265 21.5555L29.7502 24.4458C28.4485 24.9465 28.0734 25.1038 27.7707 25.319C27.467 25.535 27.2017 25.8003 26.9858 26.104C26.7706 26.4066 26.6132 26.7817 26.1126 28.0835L23.2223 35.5983C22.9747 36.2419 22.3563 36.6666 21.6667 36.6666C20.9771 36.6666 20.3587 36.2419 20.1111 35.5983L17.2208 28.0835C16.7201 26.7817 16.5628 26.4066 16.3476 26.104C16.1317 25.8003 15.8663 25.535 15.5627 25.319C15.26 25.1038 14.8849 24.9465 13.5832 24.4458L6.06839 21.5555C5.42473 21.308 5.00002 20.6896 5.00002 20C5.00002 19.3103 5.42473 18.6919 6.06839 18.4444L13.5832 15.5541C14.8849 15.0534 15.26 14.8961 15.5627 14.6809C15.8663 14.4649 16.1317 14.1996 16.3476 13.8959C16.5628 13.5933 16.7201 13.2182 17.2208 11.9164L20.1111 4.40166C20.3587 3.75801 20.9771 3.33329 21.6667 3.33329ZM21.6667 9.64276L20.332 13.113C20.3099 13.1705 20.2881 13.2272 20.2666 13.2832C19.8606 14.3403 19.554 15.1388 19.0642 15.8276C18.6323 16.435 18.1017 16.9656 17.4943 17.3975C16.8055 17.8872 16.007 18.1939 14.9499 18.5999C14.8939 18.6214 14.8372 18.6431 14.7798 18.6652L11.3095 20L14.7798 21.3347C14.8372 21.3568 14.8939 21.3786 14.9499 21.4001C16.007 21.806 16.8055 22.1127 17.4943 22.6024C18.1017 23.0343 18.6323 23.565 19.0642 24.1723C19.554 24.8611 19.8606 25.6596 20.2666 26.7167C20.2881 26.7727 20.3099 26.8294 20.332 26.8869L21.6667 30.3572L23.0014 26.8869C23.0235 26.8294 23.0453 26.7727 23.0668 26.7168C23.4727 25.6596 23.7794 24.8611 24.2692 24.1723C24.701 23.565 25.2317 23.0343 25.8391 22.6024C26.5278 22.1127 27.3264 21.806 28.3835 21.4001C28.4395 21.3786 28.4962 21.3568 28.5536 21.3347L32.0239 20L28.5536 18.6652C28.4962 18.6431 28.4394 18.6214 28.3835 18.5999C27.3264 18.1939 26.5278 17.8872 25.8391 17.3975C25.2317 16.9656 24.701 16.435 24.2692 15.8276C23.7794 15.1388 23.4727 14.3403 23.0668 13.2832C23.0453 13.2272 23.0235 13.1705 23.0014 13.113L21.6667 9.64276Z" fill="#0C0E12"/>
</svg>
