<svg width="25" height="24" viewBox="0 0 25 24" fill="none" xmlns="http://www.w3.org/2000/svg">
<g clip-path="url(#clip0_171_82)">
<path d="M12.5 0C19.1 0 24.5 5.4 24.5 12C24.5 18.6 19.1 24 12.5 24C5.9 24 0.5 18.6 0.5 12C0.5 5.4 5.9 0 12.5 0Z" fill="url(#paint0_linear_171_82)"/>
<path d="M16.025 4.5H8.9C6.725 4.5 5 6.3 5 8.55V15.45C5 17.625 6.725 19.425 8.975 19.5H16.1C18.275 19.5 20.075 17.7 20.075 15.45V8.55C20 6.3 18.275 4.5 16.025 4.5ZM18.65 15.375C18.65 16.875 17.45 18.15 15.875 18.15H9.05C7.55 18.15 6.275 16.875 6.35 15.375V8.625C6.35 7.125 7.55 5.85 9.05 5.85H15.875C17.375 5.85 18.65 7.125 18.65 8.625V15.375Z" fill="white"/>
<path d="M12.5 8.17521C10.4 8.10021 8.60001 9.82522 8.60001 11.9252C8.52501 14.0252 10.25 15.8252 12.35 15.8252C14.45 15.8252 16.25 14.1752 16.25 12.0752V12.0002C16.325 9.90022 14.6 8.17521 12.5 8.17521ZM12.5 14.4752C11.15 14.4752 10.025 13.4252 9.95001 12.0752C9.95001 10.7252 11 9.60022 12.35 9.52522C13.7 9.45022 14.825 10.5752 14.9 11.9252V12.0002C14.975 13.3502 13.85 14.4752 12.5 14.4752ZM16.4749 7.0498C16.9249 7.0498 17.2999 7.42481 17.2999 7.94981C17.2999 8.47481 16.9249 8.8498 16.4749 8.8498C16.0249 8.8498 15.6499 8.47481 15.6499 7.94981C15.6499 7.42481 16.0249 7.0498 16.4749 7.0498Z" fill="white"/>
</g>
<defs>
<linearGradient id="paint0_linear_171_82" x1="6.498" y1="22.395" x2="18.5" y2="1.607" gradientUnits="userSpaceOnUse">
<stop stop-color="#FEC053"/>
<stop offset="0.327" stop-color="#F2203E"/>
<stop offset="0.648" stop-color="#B729A8"/>
<stop offset="1" stop-color="#5342D6"/>
</linearGradient>
<clipPath id="clip0_171_82">
<rect width="24" height="24" fill="white" transform="translate(0.5)"/>
</clipPath>
</defs>
</svg>
