<svg width="25" height="24" viewBox="0 0 25 24" fill="none" xmlns="http://www.w3.org/2000/svg">
<g clip-path="url(#clip0_171_89)">
<path d="M5.5 5H20.5V19H5.5V5Z" fill="white"/>
<path fill-rule="evenodd" clip-rule="evenodd" d="M19.2348 17.6548V12.97C19.2348 10.46 17.8948 9.292 16.1084 9.292C14.6668 9.292 14.0208 10.0852 13.6608 10.6416V9.484H10.9448C10.9808 10.2508 10.9448 17.6548 10.9448 17.6548H13.6608V13.0916C13.6608 12.848 13.6784 12.604 13.7504 12.4296C13.9464 11.9416 14.3932 11.4364 15.1432 11.4364C16.1264 11.4364 16.5192 12.1856 16.5192 13.2836V17.6552L19.2348 17.6548ZM8.0836 8.3688C9.0304 8.3688 9.6204 7.7408 9.6204 6.9564C9.6028 6.1552 9.0304 5.5452 8.1016 5.5452C7.1728 5.5452 6.5652 6.1548 6.5652 6.9564C6.5652 7.7408 7.1548 8.3688 8.0664 8.3688H8.0836ZM12.5 24C5.8728 24 0.5 18.6272 0.5 12C0.5 5.3724 5.8728 0 12.5 0C19.1272 0 24.5 5.3724 24.5 12C24.5 18.6272 19.1272 24 12.5 24ZM9.4416 17.6548V9.484H6.726V17.6548H9.4416Z" fill="#2867B2"/>
</g>
<defs>
<clipPath id="clip0_171_89">
<rect width="24" height="24" fill="white" transform="translate(0.5)"/>
</clipPath>
</defs>
</svg>
