<svg width="121" height="40" viewBox="0 0 121 40" fill="none" xmlns="http://www.w3.org/2000/svg">
<g clip-path="url(#clip0_171_53)">
<path d="M112.205 14.5317V40H106.006V14.5317H97.7117V9.16016H120.499V14.5317H112.205Z" fill="#0C0E12"/>
<path d="M69.5286 39.9977H56.2402V9.16016H68.9943C75.1927 9.16016 78.8045 12.5383 78.8045 17.8226C78.8045 21.2432 76.4849 23.4537 74.8794 24.1897C76.7958 25.0555 79.249 27.004 79.249 31.1206C79.249 36.879 75.1927 39.9977 69.5286 39.9977ZM68.5036 14.5317H62.4387V21.6348H68.5036C71.1341 21.6348 72.606 20.2052 72.606 18.0821C72.606 15.9612 71.1341 14.5317 68.5036 14.5317ZM68.9043 27.0488H62.4387V34.6284H68.9043C71.7145 34.6284 73.0504 32.897 73.0504 30.8163C73.0504 28.7379 71.7145 27.0488 68.9043 27.0488Z" fill="#0C0E12"/>
<path d="M42.4147 27.3508V39.9977H36.26V27.3508L26.7169 9.16016H33.4498L39.3811 21.5899L45.2226 9.16016H51.9554L42.4147 27.3508Z" fill="#0C0E12"/>
<path d="M13.7884 39.9977H0.5V9.16016H13.254C19.4526 9.16016 23.0643 12.5383 23.0643 17.8226C23.0643 21.2432 20.7447 23.4537 19.1392 24.1897C21.0556 25.0555 23.5087 27.004 23.5087 31.1206C23.5087 36.879 19.4526 39.9977 13.7884 39.9977ZM12.7634 14.5317H6.69848V21.6348H12.7634C15.3939 21.6348 16.8658 20.2052 16.8658 18.0821C16.8658 15.9612 15.3939 14.5317 12.7634 14.5317ZM13.1642 27.0488H6.69848V34.6284H13.1642C15.9743 34.6284 17.3102 32.897 17.3102 30.8163C17.3102 28.7379 15.9719 27.0488 13.1642 27.0488Z" fill="#0C0E12"/>
<path d="M86.0287 30.8375V0H92.2272V30.8375H86.0287Z" fill="#F7A600"/>
</g>
<defs>
<clipPath id="clip0_171_53">
<rect width="120" height="40" fill="white" transform="translate(0.5)"/>
</clipPath>
</defs>
</svg>
