<svg width="66" height="22" viewBox="0 0 66 22" fill="none" xmlns="http://www.w3.org/2000/svg">
<g clip-path="url(#clip0_113_160)">
<path d="M61.4377 7.99245V22H58.0285V7.99245H53.4664V5.03808H65.9997V7.99245H61.4377Z" fill="white"/>
<path d="M37.9657 21.9987H30.6571V5.03808H37.6718C41.081 5.03808 43.0674 6.89609 43.0674 9.80244C43.0674 11.6837 41.7917 12.8995 40.9086 13.3043C41.9626 13.7805 43.3119 14.8522 43.3119 17.1163C43.3119 20.2835 41.081 21.9987 37.9657 21.9987ZM37.402 7.99245H34.0662V11.8991H37.402C38.8487 11.8991 39.6583 11.1129 39.6583 9.94514C39.6583 8.77868 38.8487 7.99245 37.402 7.99245ZM37.6224 14.8769H34.0662V19.0456H37.6224C39.168 19.0456 39.9027 18.0933 39.9027 16.949C39.9027 15.8059 39.168 14.8769 37.6224 14.8769Z" fill="white"/>
<path d="M23.0531 15.0429V21.9987H19.668V15.0429L14.4193 5.03808H18.1224L21.3846 11.8745L24.5974 5.03808H28.3005L23.0531 15.0429Z" fill="white"/>
<path d="M7.30861 21.9987H0V5.03808H7.01471C10.4239 5.03808 12.4104 6.89609 12.4104 9.80244C12.4104 11.6837 11.1346 12.8995 10.2515 13.3043C11.3056 13.7805 12.6548 14.8522 12.6548 17.1163C12.6548 20.2835 10.4239 21.9987 7.30861 21.9987ZM6.74487 7.99245H3.40917V11.8991H6.74487C8.19166 11.8991 9.00119 11.1129 9.00119 9.94514C9.00119 8.77868 8.19166 7.99245 6.74487 7.99245ZM6.96528 14.8769H3.40917V19.0456H6.96528C8.51089 19.0456 9.24561 18.0933 9.24561 16.949C9.24561 15.8059 8.50952 14.8769 6.96528 14.8769Z" fill="white"/>
<path d="M47.0408 16.9606V0H50.4499V16.9606H47.0408Z" fill="#F7A600"/>
</g>
<defs>
<clipPath id="clip0_113_160">
<rect width="66" height="22" fill="white"/>
</clipPath>
</defs>
</svg>
