<svg width="40" height="40" viewBox="0 0 40 40" fill="none" xmlns="http://www.w3.org/2000/svg">
<path fill-rule="evenodd" clip-rule="evenodd" d="M20 4.99996C11.7157 4.99996 5 11.7157 5 20C5 28.2842 11.7157 35 20 35C21.841 35 23.3333 33.5076 23.3333 31.6666V30.8333C23.3333 30.7945 23.3333 30.7563 23.3333 30.7187C23.3331 30.0563 23.333 29.5655 23.3904 29.1298C23.7842 26.1382 26.1383 23.7842 29.1298 23.3903C29.5656 23.333 30.0563 23.3331 30.7187 23.3333C30.7564 23.3333 30.7946 23.3333 30.8333 23.3333H31.6667C33.5076 23.3333 35 21.8409 35 20C35 11.7157 28.2843 4.99996 20 4.99996ZM1.66667 20C1.66667 9.87474 9.87478 1.66663 20 1.66663C30.1252 1.66663 38.3333 9.87474 38.3333 20C38.3333 23.6819 35.3486 26.6666 31.6667 26.6666H30.8333C30.0063 26.6666 29.7542 26.6702 29.5649 26.6951C28.0691 26.8921 26.8921 28.0691 26.6952 29.5649C26.6703 29.7542 26.6667 30.0063 26.6667 30.8333V31.6666C26.6667 35.3485 23.6819 38.3333 20 38.3333C9.87478 38.3333 1.66667 30.1252 1.66667 20ZM13.3333 11.6666C13.3333 9.82568 14.8257 8.33329 16.6667 8.33329C18.5076 8.33329 20 9.82568 20 11.6666C20 13.5076 18.5076 15 16.6667 15C14.8257 15 13.3333 13.5076 13.3333 11.6666ZM23.3333 13.3333C23.3333 11.4923 24.8257 9.99996 26.6667 9.99996C28.5076 9.99996 30 11.4923 30 13.3333C30 15.1742 28.5076 16.6666 26.6667 16.6666C24.8257 16.6666 23.3333 15.1742 23.3333 13.3333ZM8.33334 20C8.33334 18.159 9.82572 16.6666 11.6667 16.6666C13.5076 16.6666 15 18.159 15 20C15 21.8409 13.5076 23.3333 11.6667 23.3333C9.82572 23.3333 8.33334 21.8409 8.33334 20Z" fill="#0C0E12"/>
<path d="M16.6667 8.33329C14.8257 8.33329 13.3333 9.82568 13.3333 11.6666C13.3333 13.5076 14.8257 15 16.6667 15C18.5076 15 20 13.5076 20 11.6666C20 9.82568 18.5076 8.33329 16.6667 8.33329Z" fill="#F7A600"/>
<path d="M26.6667 9.99996C24.8257 9.99996 23.3333 11.4923 23.3333 13.3333C23.3333 15.1742 24.8257 16.6666 26.6667 16.6666C28.5076 16.6666 30 15.1742 30 13.3333C30 11.4923 28.5076 9.99996 26.6667 9.99996Z" fill="#F7A600"/>
<path d="M11.6667 16.6666C9.82572 16.6666 8.33334 18.159 8.33334 20C8.33334 21.8409 9.82572 23.3333 11.6667 23.3333C13.5076 23.3333 15 21.8409 15 20C15 18.159 13.5076 16.6666 11.6667 16.6666Z" fill="#F7A600"/>
</svg>
