<svg width="28" height="28" viewBox="0 0 28 28" fill="none" xmlns="http://www.w3.org/2000/svg">
<mask id="mask0_171_194" style="mask-type:alpha" maskUnits="userSpaceOnUse" x="4" y="4" width="20" height="20">
<path fill-rule="evenodd" clip-rule="evenodd" d="M14 4.66675C14.6444 4.66675 15.1667 5.18908 15.1667 5.83341V12.8334H22.1667C22.811 12.8334 23.3334 13.3558 23.3334 14.0001C23.3334 14.6444 22.811 15.1667 22.1667 15.1667H15.1667V22.1667C15.1667 22.8111 14.6444 23.3334 14 23.3334C13.3557 23.3334 12.8334 22.8111 12.8334 22.1667V15.1667H5.83335C5.18902 15.1667 4.66669 14.6444 4.66669 14.0001C4.66669 13.3558 5.18902 12.8334 5.83335 12.8334H12.8334V5.83341C12.8334 5.18908 13.3557 4.66675 14 4.66675Z" fill="black"/>
</mask>
<g mask="url(#mask0_171_194)">
<rect width="28" height="28" fill="white" fill-opacity="0.4"/>
</g>
</svg>
