<svg width="25" height="24" viewBox="0 0 25 24" fill="none" xmlns="http://www.w3.org/2000/svg">
<g clip-path="url(#clip0_171_86)">
<path d="M12.5 24C19.1274 24 24.5 18.6274 24.5 12C24.5 5.37258 19.1274 0 12.5 0C5.87258 0 0.5 5.37258 0.5 12C0.5 18.6274 5.87258 24 12.5 24Z" fill="black"/>
<path d="M14.2319 10.7749L20.0693 4H18.6861L13.6174 9.88256L9.56914 4H4.8999L11.0217 12.8955L4.8999 20H6.28326L11.6359 13.7878L15.9112 20H20.5804L14.2319 10.7749ZM12.3372 12.9738L11.717 12.0881L6.78171 5.03974H8.90647L12.8893 10.728L13.5095 11.6137L18.6867 19.0075H16.562L12.3372 12.9738Z" fill="white"/>
</g>
<defs>
<clipPath id="clip0_171_86">
<rect width="24" height="24" fill="white" transform="translate(0.5)"/>
</clipPath>
</defs>
</svg>
